<svg width="737" height="430" viewBox="0 0 737 430" fill="none" xmlns="http://www.w3.org/2000/svg">
<path d="M1.43 415.071L9.845 378.771H22.33C26.4367 378.771 29.645 379.725 31.955 381.631C34.265 383.501 35.42 386.068 35.42 389.331C35.42 391.861 34.7967 394.116 33.55 396.096C32.3033 398.076 30.5433 399.635 28.27 400.771C26.0333 401.871 23.3567 402.421 20.24 402.421H8.525L9.845 396.426H20.46C22.11 396.426 23.4667 396.133 24.53 395.546C25.5933 394.923 26.4 394.116 26.95 393.126C27.5 392.136 27.775 391.055 27.775 389.881C27.775 388.341 27.2617 387.113 26.235 386.196C25.245 385.243 23.6867 384.766 21.56 384.766H16.06L9.02 415.071H1.43ZM39.1905 415.071L47.6055 378.771H61.8505C65.4072 378.771 68.2122 379.67 70.2655 381.466C72.3555 383.263 73.4005 385.756 73.4005 388.946C73.4005 391.366 72.8322 393.456 71.6955 395.216C70.5955 396.976 69.1105 398.351 67.2405 399.341C65.3705 400.331 63.2805 400.936 60.9705 401.156L58.6605 401.596H48.9805L50.3005 395.821H58.4955C60.1088 395.821 61.4472 395.546 62.5105 394.996C63.6105 394.41 64.4355 393.64 64.9855 392.686C65.5722 391.696 65.8655 390.596 65.8655 389.386C65.8655 387.846 65.3338 386.71 64.2705 385.976C63.2072 385.206 61.7955 384.821 60.0355 384.821H53.7105L46.6705 415.071H39.1905ZM62.6205 415.071L56.5705 399.451L63.6105 398.406L70.3755 415.071H62.6205ZM95.6381 415.621C92.7415 415.621 90.0831 414.998 87.6631 413.751C85.2798 412.505 83.3731 410.69 81.9431 408.306C80.5498 405.923 79.8531 403.045 79.8531 399.671C79.8531 396.701 80.2748 393.933 81.1181 391.366C81.9615 388.763 83.1898 386.49 84.8031 384.546C86.4531 382.566 88.4698 381.026 90.8531 379.926C93.2731 378.79 96.0048 378.221 99.0481 378.221C101.981 378.221 104.621 378.845 106.968 380.091C109.351 381.338 111.24 383.153 112.633 385.536C114.026 387.92 114.723 390.798 114.723 394.171C114.723 397.105 114.301 399.873 113.458 402.476C112.651 405.043 111.423 407.316 109.773 409.296C108.16 411.276 106.161 412.835 103.778 413.971C101.395 415.071 98.6815 415.621 95.6381 415.621ZM96.0231 409.351C97.8565 409.351 99.4515 408.911 100.808 408.031C102.201 407.115 103.356 405.905 104.273 404.401C105.19 402.898 105.868 401.23 106.308 399.396C106.785 397.563 107.023 395.73 107.023 393.896C107.023 391.88 106.675 390.175 105.978 388.781C105.318 387.388 104.365 386.325 103.118 385.591C101.871 384.858 100.386 384.491 98.6631 384.491C96.8298 384.491 95.2165 384.95 93.8231 385.866C92.4665 386.746 91.3115 387.938 90.3581 389.441C89.4415 390.945 88.7448 392.613 88.2681 394.446C87.7915 396.28 87.5531 398.113 87.5531 399.946C87.5531 401.926 87.9015 403.631 88.5981 405.061C89.2948 406.455 90.2665 407.518 91.5131 408.251C92.7965 408.985 94.2998 409.351 96.0231 409.351ZM132.341 415.566C129.958 415.566 127.886 415.163 126.126 414.356C124.403 413.55 123.046 412.45 122.056 411.056C121.066 409.663 120.498 408.05 120.351 406.216C120.205 404.383 120.516 402.44 121.286 400.386L128.766 400.056C128.07 402.036 127.758 403.723 127.831 405.116C127.941 406.51 128.436 407.591 129.316 408.361C130.196 409.095 131.388 409.461 132.891 409.461C134.871 409.461 136.32 408.838 137.236 407.591C138.19 406.308 138.996 404.2 139.656 401.266L144.881 378.771H152.471L146.971 402.751C146.385 405.245 145.523 407.463 144.386 409.406C143.25 411.313 141.71 412.816 139.766 413.916C137.86 415.016 135.385 415.566 132.341 415.566ZM154.996 415.071L163.411 378.771H190.416L188.986 384.876H169.571L167.481 393.896H182.771L181.451 399.726H166.161L164.071 408.966H184.146L182.716 415.071H154.996ZM228.586 378.771L227.156 384.876H215.221L208.236 415.071H200.646L207.631 384.876H195.531L197.016 378.771H228.586ZM245.713 415.621C242.817 415.621 240.158 414.998 237.738 413.751C235.355 412.505 233.448 410.69 232.018 408.306C230.625 405.923 229.928 403.045 229.928 399.671C229.928 396.701 230.35 393.933 231.193 391.366C232.037 388.763 233.265 386.49 234.878 384.546C236.528 382.566 238.545 381.026 240.928 379.926C243.348 378.79 246.08 378.221 249.123 378.221C252.057 378.221 254.697 378.845 257.043 380.091C259.427 381.338 261.315 383.153 262.708 385.536C264.102 387.92 264.798 390.798 264.798 394.171C264.798 397.105 264.377 399.873 263.533 402.476C262.727 405.043 261.498 407.316 259.848 409.296C258.235 411.276 256.237 412.835 253.853 413.971C251.47 415.071 248.757 415.621 245.713 415.621ZM246.098 409.351C247.932 409.351 249.527 408.911 250.883 408.031C252.277 407.115 253.432 405.905 254.348 404.401C255.265 402.898 255.943 401.23 256.383 399.396C256.86 397.563 257.098 395.73 257.098 393.896C257.098 391.88 256.75 390.175 256.053 388.781C255.393 387.388 254.44 386.325 253.193 385.591C251.947 384.858 250.462 384.491 248.738 384.491C246.905 384.491 245.292 384.95 243.898 385.866C242.542 386.746 241.387 387.938 240.433 389.441C239.517 390.945 238.82 392.613 238.343 394.446C237.867 396.28 237.628 398.113 237.628 399.946C237.628 401.926 237.977 403.631 238.673 405.061C239.37 406.455 240.342 407.518 241.588 408.251C242.872 408.985 244.375 409.351 246.098 409.351ZM300.662 415.566C298.205 415.566 296.078 415.145 294.282 414.301C292.522 413.458 291.183 412.285 290.267 410.781C289.35 409.278 288.892 407.536 288.892 405.556C288.892 403.246 289.387 401.303 290.377 399.726C291.403 398.15 292.815 396.866 294.612 395.876C296.445 394.85 298.572 394.098 300.992 393.621L303.412 392.576C304.842 392.246 306.143 391.843 307.317 391.366C308.49 390.89 309.407 390.266 310.067 389.496C310.763 388.69 311.112 387.7 311.112 386.526C311.112 385.463 310.837 384.675 310.287 384.161C309.737 383.611 309.003 383.336 308.087 383.336C306.84 383.336 305.832 383.795 305.062 384.711C304.328 385.591 303.962 386.765 303.962 388.231C303.962 388.928 304.053 389.716 304.237 390.596C304.42 391.476 304.695 392.448 305.062 393.511C305.428 394.538 305.923 395.675 306.547 396.921C307.17 398.131 307.885 399.488 308.692 400.991C309.755 402.825 310.892 404.493 312.102 405.996C313.312 407.463 314.613 408.618 316.007 409.461C317.437 410.305 318.922 410.671 320.462 410.561L319.197 415.676H318.592C316.575 415.676 314.705 415.218 312.982 414.301C311.295 413.385 309.7 412.101 308.197 410.451C306.73 408.801 305.318 406.84 303.962 404.566C302.568 402.293 301.413 400.221 300.497 398.351C299.617 396.445 298.957 394.685 298.517 393.071C298.113 391.421 297.912 389.881 297.912 388.451C297.912 386.398 298.352 384.601 299.232 383.061C300.148 381.521 301.395 380.33 302.972 379.486C304.548 378.606 306.4 378.166 308.527 378.166C311.167 378.166 313.238 378.826 314.742 380.146C316.282 381.466 317.052 383.171 317.052 385.261C317.052 387.425 316.502 389.258 315.402 390.761C314.338 392.265 312.853 393.493 310.947 394.446C309.04 395.363 306.84 396.115 304.347 396.701L303.962 397.361C302.312 397.801 300.845 398.333 299.562 398.956C298.315 399.543 297.343 400.313 296.647 401.266C295.95 402.183 295.602 403.375 295.602 404.841C295.602 406.638 296.188 408.013 297.362 408.966C298.572 409.92 300.13 410.396 302.037 410.396C303.65 410.396 305.007 410.103 306.107 409.516C307.243 408.893 308.38 408.086 309.517 407.096L310.507 406.436C311.643 405.446 312.615 404.218 313.422 402.751C314.228 401.285 314.815 399.598 315.182 397.691L320.572 397.856C319.985 400.313 319.068 402.641 317.822 404.841C316.575 407.005 315.108 408.783 313.422 410.176L312.267 411.001C311.24 411.845 310.14 412.615 308.967 413.311C307.83 414.008 306.583 414.558 305.227 414.961C303.87 415.365 302.348 415.566 300.662 415.566ZM363.781 415.621C360.774 415.621 358.061 415.016 355.641 413.806C353.221 412.56 351.296 410.781 349.866 408.471C348.472 406.125 347.776 403.301 347.776 400.001C347.776 397.031 348.197 394.245 349.041 391.641C349.884 389.038 351.131 386.728 352.781 384.711C354.431 382.695 356.447 381.118 358.831 379.981C361.251 378.808 364.001 378.221 367.081 378.221C369.684 378.221 371.976 378.643 373.956 379.486C375.972 380.33 377.641 381.595 378.961 383.281C380.281 384.931 381.197 386.985 381.711 389.441L374.231 391.311C373.864 388.928 373.076 387.186 371.866 386.086C370.656 384.986 368.969 384.436 366.806 384.436C364.899 384.436 363.231 384.913 361.801 385.866C360.407 386.783 359.234 387.993 358.281 389.496C357.364 391 356.667 392.668 356.191 394.501C355.714 396.298 355.476 398.076 355.476 399.836C355.476 401.853 355.842 403.576 356.576 405.006C357.309 406.4 358.336 407.481 359.656 408.251C360.976 409.021 362.497 409.406 364.221 409.406C366.311 409.406 367.942 408.911 369.116 407.921C370.326 406.931 371.334 405.63 372.141 404.016L379.071 406.821C377.494 409.535 375.477 411.68 373.021 413.256C370.601 414.833 367.521 415.621 363.781 415.621ZM402.988 415.621C400.091 415.621 397.433 414.998 395.013 413.751C392.629 412.505 390.723 410.69 389.293 408.306C387.899 405.923 387.203 403.045 387.203 399.671C387.203 396.701 387.624 393.933 388.468 391.366C389.311 388.763 390.539 386.49 392.153 384.546C393.803 382.566 395.819 381.026 398.203 379.926C400.623 378.79 403.354 378.221 406.398 378.221C409.331 378.221 411.971 378.845 414.318 380.091C416.701 381.338 418.589 383.153 419.983 385.536C421.376 387.92 422.073 390.798 422.073 394.171C422.073 397.105 421.651 399.873 420.808 402.476C420.001 405.043 418.773 407.316 417.123 409.296C415.509 411.276 413.511 412.835 411.128 413.971C408.744 415.071 406.031 415.621 402.988 415.621ZM403.373 409.351C405.206 409.351 406.801 408.911 408.158 408.031C409.551 407.115 410.706 405.905 411.623 404.401C412.539 402.898 413.218 401.23 413.658 399.396C414.134 397.563 414.373 395.73 414.373 393.896C414.373 391.88 414.024 390.175 413.328 388.781C412.668 387.388 411.714 386.325 410.468 385.591C409.221 384.858 407.736 384.491 406.013 384.491C404.179 384.491 402.566 384.95 401.173 385.866C399.816 386.746 398.661 387.938 397.708 389.441C396.791 390.945 396.094 392.613 395.618 394.446C395.141 396.28 394.903 398.113 394.903 399.946C394.903 401.926 395.251 403.631 395.948 405.061C396.644 406.455 397.616 407.518 398.863 408.251C400.146 408.985 401.649 409.351 403.373 409.351ZM427.701 415.071L436.116 378.771H444.476L451.901 400.276L453.826 406.711H453.936L455.311 399.781L460.151 378.771H466.971L458.556 415.071H450.306L442.716 393.731L440.791 387.351H440.681L439.416 394.061L434.521 415.071H427.701ZM487.074 415.621C484.434 415.621 481.996 415.255 479.759 414.521C477.522 413.788 475.542 412.725 473.819 411.331C472.132 409.901 470.739 408.105 469.639 405.941L474.754 401.706C475.524 403.466 476.551 404.933 477.834 406.106C479.154 407.243 480.621 408.086 482.234 408.636C483.847 409.186 485.497 409.461 487.184 409.461C488.577 409.461 489.714 409.26 490.594 408.856C491.511 408.416 492.189 407.848 492.629 407.151C493.069 406.418 493.289 405.648 493.289 404.841C493.289 403.851 492.941 403.063 492.244 402.476C491.584 401.89 490.576 401.395 489.219 400.991L483.609 399.286C481.886 398.736 480.364 398.021 479.044 397.141C477.724 396.261 476.679 395.18 475.909 393.896C475.176 392.613 474.809 391.165 474.809 389.551C474.809 387.241 475.414 385.243 476.624 383.556C477.834 381.833 479.484 380.513 481.574 379.596C483.701 378.643 486.157 378.166 488.944 378.166C492.684 378.166 495.801 378.863 498.294 380.256C500.824 381.65 502.822 383.666 504.289 386.306L498.954 390.431C498.331 388.928 497.469 387.736 496.369 386.856C495.306 385.94 494.132 385.298 492.849 384.931C491.566 384.565 490.227 384.381 488.834 384.381C487.477 384.381 486.341 384.565 485.424 384.931C484.507 385.298 483.829 385.811 483.389 386.471C482.949 387.131 482.729 387.865 482.729 388.671C482.729 389.625 483.132 390.468 483.939 391.201C484.746 391.935 485.809 392.521 487.129 392.961L492.959 394.721C495.709 395.601 497.762 396.775 499.119 398.241C500.512 399.708 501.209 401.596 501.209 403.906C501.209 406.326 500.567 408.416 499.284 410.176C498.037 411.936 496.332 413.293 494.169 414.246C492.042 415.163 489.677 415.621 487.074 415.621ZM542.435 378.771L541.005 384.876H529.07L522.085 415.071H514.495L521.48 384.876H509.38L510.865 378.771H542.435ZM542.486 415.071L550.901 378.771H565.146C568.703 378.771 571.508 379.67 573.561 381.466C575.651 383.263 576.696 385.756 576.696 388.946C576.696 391.366 576.128 393.456 574.991 395.216C573.891 396.976 572.406 398.351 570.536 399.341C568.666 400.331 566.576 400.936 564.266 401.156L561.956 401.596H552.276L553.596 395.821H561.791C563.404 395.821 564.743 395.546 565.806 394.996C566.906 394.41 567.731 393.64 568.281 392.686C568.868 391.696 569.161 390.596 569.161 389.386C569.161 387.846 568.629 386.71 567.566 385.976C566.503 385.206 565.091 384.821 563.331 384.821H557.006L549.966 415.071H542.486ZM565.916 415.071L559.866 399.451L566.906 398.406L573.671 415.071H565.916ZM597.34 415.621C593.857 415.621 590.942 414.961 588.595 413.641C586.285 412.321 584.69 410.433 583.81 407.976C582.93 405.52 582.875 402.568 583.645 399.121L588.43 378.771H596.075L591.125 400.331C590.685 402.311 590.685 403.98 591.125 405.336C591.602 406.693 592.427 407.72 593.6 408.416C594.773 409.076 596.222 409.406 597.945 409.406C600.292 409.406 602.125 408.691 603.445 407.261C604.802 405.795 605.773 403.76 606.36 401.156L611.53 378.771H619.12L613.785 401.816C612.758 406.216 610.907 409.626 608.23 412.046C605.553 414.43 601.923 415.621 597.34 415.621ZM639.921 415.621C636.914 415.621 634.201 415.016 631.781 413.806C629.361 412.56 627.436 410.781 626.006 408.471C624.612 406.125 623.916 403.301 623.916 400.001C623.916 397.031 624.337 394.245 625.181 391.641C626.024 389.038 627.271 386.728 628.921 384.711C630.571 382.695 632.587 381.118 634.971 379.981C637.391 378.808 640.141 378.221 643.221 378.221C645.824 378.221 648.116 378.643 650.096 379.486C652.112 380.33 653.781 381.595 655.101 383.281C656.421 384.931 657.337 386.985 657.851 389.441L650.371 391.311C650.004 388.928 649.216 387.186 648.006 386.086C646.796 384.986 645.109 384.436 642.946 384.436C641.039 384.436 639.371 384.913 637.941 385.866C636.547 386.783 635.374 387.993 634.421 389.496C633.504 391 632.807 392.668 632.331 394.501C631.854 396.298 631.616 398.076 631.616 399.836C631.616 401.853 631.982 403.576 632.716 405.006C633.449 406.4 634.476 407.481 635.796 408.251C637.116 409.021 638.637 409.406 640.361 409.406C642.451 409.406 644.082 408.911 645.256 407.921C646.466 406.931 647.474 405.63 648.281 404.016L655.211 406.821C653.634 409.535 651.617 411.68 649.161 413.256C646.741 414.833 643.661 415.621 639.921 415.621ZM635.301 414.741L637.831 413.476C639.737 413.99 641.186 414.778 642.176 415.841C643.202 416.905 643.716 418.243 643.716 419.856C643.716 421.36 643.367 422.643 642.671 423.706C642.011 424.77 641.112 425.576 639.976 426.126C638.839 426.676 637.556 426.951 636.126 426.951C634.806 426.951 633.614 426.713 632.551 426.236C631.524 425.796 630.717 425.265 630.131 424.641L632.276 421.066C632.752 421.543 633.321 421.891 633.981 422.111C634.677 422.368 635.337 422.496 635.961 422.496C636.951 422.496 637.757 422.166 638.381 421.506C639.004 420.883 639.316 420.113 639.316 419.196C639.316 418.206 638.986 417.363 638.326 416.666C637.666 415.97 636.657 415.328 635.301 414.741ZM657.445 415.071L678.895 378.771H688.135L692.645 415.071H685.385L684.34 405.886H670.7L665.53 415.071H657.445ZM673.78 400.276H683.955L682.36 385.096L673.78 400.276ZM695.615 366.781C695.211 369.531 694.313 371.603 692.92 372.996C691.526 374.353 689.95 375.031 688.19 375.031C687.236 375.031 686.411 374.866 685.715 374.536C685.055 374.17 684.486 373.766 684.01 373.326C683.533 372.886 683.056 372.501 682.58 372.171C682.14 371.805 681.663 371.621 681.15 371.621C680.526 371.621 679.976 371.933 679.5 372.556C679.06 373.143 678.711 373.968 678.455 375.031H673.89C674.33 372.318 675.228 370.265 676.585 368.871C677.941 367.478 679.518 366.781 681.315 366.781C682.195 366.781 682.965 366.965 683.625 367.331C684.285 367.661 684.871 368.065 685.385 368.541C685.898 368.981 686.393 369.385 686.87 369.751C687.346 370.081 687.841 370.246 688.355 370.246C688.978 370.246 689.51 369.953 689.95 369.366C690.426 368.743 690.793 367.881 691.05 366.781H695.615ZM715.277 415.621C712.38 415.621 709.722 414.998 707.302 413.751C704.918 412.505 703.012 410.69 701.582 408.306C700.188 405.923 699.492 403.045 699.492 399.671C699.492 396.701 699.913 393.933 700.757 391.366C701.6 388.763 702.828 386.49 704.442 384.546C706.092 382.566 708.108 381.026 710.492 379.926C712.912 378.79 715.643 378.221 718.687 378.221C721.62 378.221 724.26 378.845 726.607 380.091C728.99 381.338 730.878 383.153 732.272 385.536C733.665 387.92 734.362 390.798 734.362 394.171C734.362 397.105 733.94 399.873 733.097 402.476C732.29 405.043 731.062 407.316 729.412 409.296C727.798 411.276 725.8 412.835 723.417 413.971C721.033 415.071 718.32 415.621 715.277 415.621ZM715.662 409.351C717.495 409.351 719.09 408.911 720.447 408.031C721.84 407.115 722.995 405.905 723.912 404.401C724.828 402.898 725.507 401.23 725.947 399.396C726.423 397.563 726.662 395.73 726.662 393.896C726.662 391.88 726.313 390.175 725.617 388.781C724.957 387.388 724.003 386.325 722.757 385.591C721.51 384.858 720.025 384.491 718.302 384.491C716.468 384.491 714.855 384.95 713.462 385.866C712.105 386.746 710.95 387.938 709.997 389.441C709.08 390.945 708.383 392.613 707.907 394.446C707.43 396.28 707.192 398.113 707.192 399.946C707.192 401.926 707.54 403.631 708.237 405.061C708.933 406.455 709.905 407.518 711.152 408.251C712.435 408.985 713.938 409.351 715.662 409.351Z" fill="black"/>
<path d="M106 280.571L92 345.571H2L15.5 280.571H106Z" fill="#3A96DC"/>
<path d="M125.5 186.571L112 251.571H21.5L72 0.0712802H163.5C162.667 3.73794 160 16.1713 156 36.5713C188.4 5.37128 232.5 -0.762053 250.5 0.0712802L234.5 74.0713C169.3 76.0713 134.667 149.905 125.5 186.571Z" fill="black"/>
<path d="M267 0.0712802L195.5 345.571H288L313.5 222.071C314 215.738 318.2 193.471 331 155.071C349.4 113.471 377.667 90.7379 389.5 84.5713C396.667 79.4046 415.1 71.0713 431.5 79.0713C447.9 87.0713 436.333 152.071 428.5 183.571L395.5 345.571H485.5L508.25 242.571C517.134 202.347 524.5 154.571 531 139.571C537.5 124.571 543.104 109.907 558 97.0713C579.68 78.3905 605 70.0577 626 78.5713C645.733 86.5713 636.667 127.238 631.5 148.571L592.5 345.571H683L734.5 82.5713C734.5 82.5713 735.5 74.7104 735.5 68.5713C735.5 62.8478 734.5 57.5713 734.5 57.5713C732.9 43.9713 720.833 29.9046 715 24.5713C661 -20.9287 586 10.3471 571 17.0713C559 22.4506 542 36.9046 536 43.5713H532C510 11.5713 498 3.07127 446 0.0712802C395.6 -1.12871 362 23.9046 351.5 36.5713L358.5 0.0712802H267Z" fill="black"/>
</svg>
